<svg xmlns="http://www.w3.org/2000/svg" viewBox="0 0 100 76" width="100%" preserveAspectRatio="xMidYMid meet"><rect width="100" height="76" fill="#e5e7eb" /><clipPath id="c-basketweave_modular"><rect width="100" height="76" /></clipPath><g clip-path="url(#c-basketweave_modular)"><rect x="12" y="0" width="37" height="11" rx="1.5" fill="#4b5563" stroke="#374151" stroke-width="0.4" /><rect x="12" y="13" width="37" height="11" rx="1.5" fill="#4b5563" stroke="#374151" stroke-width="0.4" /><rect x="12" y="26" width="37" height="11" rx="1.5" fill="#4b5563" stroke="#374151" stroke-width="0.4" /><rect x="51" y="0" width="11" height="37" rx="1.5" fill="#4b5563" stroke="#374151" stroke-width="0.4" /><rect x="64" y="0" width="11" height="37" rx="1.5" fill="#4b5563" stroke="#374151" stroke-width="0.4" /><rect x="77" y="0" width="11" height="37" rx="1.5" fill="#4b5563" stroke="#374151" stroke-width="0.4" /><rect x="12" y="39" width="11" height="37" rx="1.5" fill="#4b5563" stroke="#374151" stroke-width="0.4" /><rect x="25" y="39" width="11" height="37" rx="1.5" fill="#4b5563" stroke="#374151" stroke-width="0.4" /><rect x="38" y="39" width="11" height="37" rx="1.5" fill="#4b5563" stroke="#374151" stroke-width="0.4" /><rect x="51" y="39" width="37" height="11" rx="1.5" fill="#4b5563" stroke="#374151" stroke-width="0.4" /><rect x="51" y="52" width="37" height="11" rx="1.5" fill="#4b5563" stroke="#374151" stroke-width="0.4" /><rect x="51" y="65" width="37" height="11" rx="1.5" fill="#4b5563" stroke="#374151" stroke-width="0.4" /></g></svg>