<svg xmlns="http://www.w3.org/2000/svg" viewBox="0 0 100 76" width="100%" preserveAspectRatio="xMidYMid meet"><rect width="100" height="76" fill="#e5e7eb" /><clipPath id="c-military"><rect width="100" height="76" /></clipPath><g clip-path="url(#c-military)"><rect x="0" y="0" width="48" height="11" rx="1.5" fill="#4b5563" stroke="#374151" stroke-width="0.4" /><rect x="50" y="0" width="50" height="11" rx="1.5" fill="#4b5563" stroke="#374151" stroke-width="0.4" /><rect x="0" y="13" width="48" height="11" rx="1.5" fill="#4b5563" stroke="#374151" stroke-width="0.4" /><rect x="50" y="13" width="50" height="11" rx="1.5" fill="#4b5563" stroke="#374151" stroke-width="0.4" /><rect x="0" y="26" width="48" height="11" rx="1.5" fill="#4b5563" stroke="#374151" stroke-width="0.4" /><rect x="50" y="26" width="50" height="11" rx="1.5" fill="#4b5563" stroke="#374151" stroke-width="0.4" /><rect x="0" y="39" width="48" height="11" rx="1.5" fill="#4b5563" stroke="#374151" stroke-width="0.4" /><rect x="50" y="39" width="50" height="11" rx="1.5" fill="#4b5563" stroke="#374151" stroke-width="0.4" /><rect x="0" y="52" width="48" height="11" rx="1.5" fill="#4b5563" stroke="#374151" stroke-width="0.4" /><rect x="50" y="52" width="50" height="11" rx="1.5" fill="#4b5563" stroke="#374151" stroke-width="0.4" /><rect x="0" y="65" width="48" height="11" rx="1.5" fill="#4b5563" stroke="#374151" stroke-width="0.4" /><rect x="50" y="65" width="50" height="11" rx="1.5" fill="#4b5563" stroke="#374151" stroke-width="0.4" /></g></svg>