<svg xmlns="http://www.w3.org/2000/svg" viewBox="0 0 100 76" width="100%" preserveAspectRatio="xMidYMid meet"><rect width="100" height="76" fill="#e5e7eb" /><clipPath id="c-soldier"><rect width="100" height="76" /></clipPath><g clip-path="url(#c-soldier)"><rect x="0" y="0" width="8" height="37" rx="1" fill="#4b5563" stroke="#374151" stroke-width="0.4" /><rect x="10" y="0" width="8" height="37" rx="1" fill="#4b5563" stroke="#374151" stroke-width="0.4" /><rect x="20" y="0" width="8" height="37" rx="1" fill="#4b5563" stroke="#374151" stroke-width="0.4" /><rect x="30" y="0" width="8" height="37" rx="1" fill="#4b5563" stroke="#374151" stroke-width="0.4" /><rect x="40" y="0" width="8" height="37" rx="1" fill="#4b5563" stroke="#374151" stroke-width="0.4" /><rect x="50" y="0" width="8" height="37" rx="1" fill="#4b5563" stroke="#374151" stroke-width="0.4" /><rect x="60" y="0" width="8" height="37" rx="1" fill="#4b5563" stroke="#374151" stroke-width="0.4" /><rect x="70" y="0" width="8" height="37" rx="1" fill="#4b5563" stroke="#374151" stroke-width="0.4" /><rect x="80" y="0" width="8" height="37" rx="1" fill="#4b5563" stroke="#374151" stroke-width="0.4" /><rect x="90" y="0" width="8" height="37" rx="1" fill="#4b5563" stroke="#374151" stroke-width="0.4" /><rect x="100" y="0" width="8" height="37" rx="1" fill="#4b5563" stroke="#374151" stroke-width="0.4" /><rect x="110" y="0" width="8" height="37" rx="1" fill="#4b5563" stroke="#374151" stroke-width="0.4" /><rect x="-6" y="39" width="8" height="37" rx="1" fill="#4b5563" stroke="#374151" stroke-width="0.4" /><rect x="4" y="39" width="8" height="37" rx="1" fill="#4b5563" stroke="#374151" stroke-width="0.4" /><rect x="14" y="39" width="8" height="37" rx="1" fill="#4b5563" stroke="#374151" stroke-width="0.4" /><rect x="24" y="39" width="8" height="37" rx="1" fill="#4b5563" stroke="#374151" stroke-width="0.4" /><rect x="34" y="39" width="8" height="37" rx="1" fill="#4b5563" stroke="#374151" stroke-width="0.4" /><rect x="44" y="39" width="8" height="37" rx="1" fill="#4b5563" stroke="#374151" stroke-width="0.4" /><rect x="54" y="39" width="8" height="37" rx="1" fill="#4b5563" stroke="#374151" stroke-width="0.4" /><rect x="64" y="39" width="8" height="37" rx="1" fill="#4b5563" stroke="#374151" stroke-width="0.4" /><rect x="74" y="39" width="8" height="37" rx="1" fill="#4b5563" stroke="#374151" stroke-width="0.4" /><rect x="84" y="39" width="8" height="37" rx="1" fill="#4b5563" stroke="#374151" stroke-width="0.4" /><rect x="94" y="39" width="8" height="37" rx="1" fill="#4b5563" stroke="#374151" stroke-width="0.4" /><rect x="104" y="39" width="8" height="37" rx="1" fill="#4b5563" stroke="#374151" stroke-width="0.4" /></g></svg>