<svg xmlns="http://www.w3.org/2000/svg" viewBox="0 0 100 76" width="100%" preserveAspectRatio="xMidYMid meet"><rect width="100" height="76" fill="#e5e7eb" /><clipPath id="c-wild"><rect width="100" height="76" /></clipPath><g clip-path="url(#c-wild)"><rect x="0" y="0" width="48" height="11" rx="1.5" fill="#4b5563" stroke="#374151" stroke-width="0.4" /><rect x="50" y="0" width="36" height="11" rx="1.5" fill="#4b5563" stroke="#374151" stroke-width="0.4" /><rect x="88" y="0" width="24" height="11" rx="1.5" fill="#4b5563" stroke="#374151" stroke-width="0.4" /><rect x="0" y="13" width="24" height="11" rx="1.5" fill="#4b5563" stroke="#374151" stroke-width="0.4" /><rect x="26" y="13" width="48" height="11" rx="1.5" fill="#4b5563" stroke="#374151" stroke-width="0.4" /><rect x="76" y="13" width="36" height="11" rx="1.5" fill="#4b5563" stroke="#374151" stroke-width="0.4" /><rect x="0" y="26" width="36" height="11" rx="1.5" fill="#4b5563" stroke="#374151" stroke-width="0.4" /><rect x="38" y="26" width="24" height="11" rx="1.5" fill="#4b5563" stroke="#374151" stroke-width="0.4" /><rect x="64" y="26" width="48" height="11" rx="1.5" fill="#4b5563" stroke="#374151" stroke-width="0.4" /><rect x="0" y="39" width="48" height="11" rx="1.5" fill="#4b5563" stroke="#374151" stroke-width="0.4" /><rect x="50" y="39" width="24" height="11" rx="1.5" fill="#4b5563" stroke="#374151" stroke-width="0.4" /><rect x="76" y="39" width="36" height="11" rx="1.5" fill="#4b5563" stroke="#374151" stroke-width="0.4" /><rect x="0" y="52" width="24" height="11" rx="1.5" fill="#4b5563" stroke="#374151" stroke-width="0.4" /><rect x="26" y="52" width="36" height="11" rx="1.5" fill="#4b5563" stroke="#374151" stroke-width="0.4" /><rect x="64" y="52" width="48" height="11" rx="1.5" fill="#4b5563" stroke="#374151" stroke-width="0.4" /><rect x="0" y="65" width="36" height="11" rx="1.5" fill="#4b5563" stroke="#374151" stroke-width="0.4" /><rect x="38" y="65" width="48" height="11" rx="1.5" fill="#4b5563" stroke="#374151" stroke-width="0.4" /><rect x="88" y="65" width="24" height="11" rx="1.5" fill="#4b5563" stroke="#374151" stroke-width="0.4" /></g></svg>